<svg version="1.0" xmlns="http://www.w3.org/2000/svg"
 width="1024.000000pt" height="1024.000000pt" viewBox="0 0 1024.000000 1024.000000"
 preserveAspectRatio="xMidYMid meet" fill="#fff">

<g transform="translate(0.000000,1024.000000) scale(0.100000,-0.100000)"
stroke="none">
<path d="M0 5120 l0 -5120 5120 0 5120 0 0 5120 0 5120 -5120 0 -5120 0 0
-5120z m5271 3703 c55 -25 123 -83 155 -134 103 -163 46 -386 -123 -481 l-53
-30 0 -389 0 -389 728 0 c894 0 925 -3 1127 -99 278 -133 503 -398 584 -689
41 -150 42 -191 39 -2072 -3 -1624 -5 -1812 -20 -1870 -37 -148 -90 -267 -169
-379 -128 -183 -286 -308 -485 -385 -184 -71 -59 -67 -1969 -64 l-1720 3 -75
23 c-41 13 -117 43 -169 68 -276 130 -490 391 -583 709 l-23 80 -3 1855 c-2
1612 0 1865 13 1941 69 400 382 736 794 852 74 21 94 21 874 25 l797 3 0 388
0 389 -50 32 c-59 38 -91 74 -128 144 -24 46 -27 62 -27 151 0 90 3 105 28
153 45 86 124 153 217 183 46 15 191 4 241 -18z m-2941 -3354 l0 -581 -37 7
c-120 22 -232 151 -263 302 -7 34 -10 146 -8 306 3 235 5 256 26 306 31 74 74
131 131 174 45 34 108 65 139 66 9 1 12 -122 12 -580z m5668 550 c65 -28 145
-109 178 -182 l29 -62 0 -310 0 -310 -29 -63 c-49 -105 -175 -202 -263 -202
l-23 0 0 580 0 580 33 -7 c17 -3 51 -14 75 -24z"/>
<path d="M3525 6840 c-163 -25 -331 -153 -410 -312 -65 -133 -67 -156 -62
-772 3 -491 5 -558 21 -610 59 -199 196 -342 396 -411 l85 -30 1537 -3 c1330
-2 1547 0 1609 13 220 45 389 209 460 445 22 73 23 88 27 600 4 597 2 615 -69
759 -76 154 -217 268 -384 311 -77 20 -110 20 -1619 19 -848 -1 -1563 -5
-1591 -9z m667 -574 c98 -21 172 -61 248 -132 213 -201 214 -527 3 -724 -121
-113 -262 -159 -425 -139 -84 10 -207 65 -274 123 -181 155 -218 452 -83 655
74 111 187 189 313 216 80 18 137 18 218 1z m2061 -1 c92 -19 180 -68 253
-140 186 -185 194 -496 16 -688 -103 -111 -231 -167 -381 -167 -178 0 -324 77
-420 221 -167 249 -76 595 192 730 110 56 218 70 340 44z"/>
<path d="M6630 4483 c-124 -45 -209 -219 -170 -351 8 -31 6 -36 -27 -65 -20
-18 -113 -100 -206 -183 l-170 -151 -31 16 c-68 33 -205 23 -260 -20 -24 -19
-24 -19 -187 72 l-164 90 -1 67 c-2 86 -30 148 -94 206 -188 168 -480 36 -484
-219 l0 -51 -325 -180 -326 -180 -55 28 c-101 52 -217 46 -307 -15 -71 -49
-106 -118 -111 -224 l-5 -84 -166 -152 c-310 -283 -321 -295 -321 -339 0 -49
35 -88 79 -88 25 0 58 24 173 126 79 69 184 166 234 216 l92 90 38 -25 c58
-37 109 -50 178 -45 153 13 257 122 262 277 l3 73 143 81 c79 44 222 124 318
178 l175 97 30 -23 c104 -78 231 -83 339 -14 l47 29 154 -87 155 -88 0 -41 c0
-104 50 -189 141 -239 47 -26 64 -30 129 -29 82 0 131 19 194 74 62 55 97 164
78 247 -9 41 -9 41 47 95 31 30 121 111 201 180 145 125 146 126 173 111 42
-22 126 -32 185 -23 152 25 247 138 246 295 -1 105 -65 208 -159 258 -54 28
-182 33 -245 10z"/>
<path d="M6430 2870 l0 -790 295 0 295 0 0 790 0 790 -295 0 -295 0 0 -790z"/>
<path d="M4820 2730 l0 -650 295 0 295 0 0 650 0 650 -295 0 -295 0 0 -650z"/>
<path d="M5630 2525 l0 -445 290 0 290 0 0 445 0 445 -290 0 -290 0 0 -445z"/>
<path d="M3710 2420 l0 -340 290 0 290 0 0 340 0 340 -290 0 -290 0 0 -340z"/>
</g>
</svg>
